<?xml version="1.0" encoding="UTF-8" standalone="no"?>
<!-- Generator: Adobe Illustrator 18.1.1, SVG Export Plug-In . SVG Version: 6.00 Build 0)  -->
<svg id="Layer_1" xmlns="http://www.w3.org/2000/svg" xml:space="preserve" viewBox="0 0 429.3 221.3" version="1.0" y="0px" x="0px" xmlns:xlink="http://www.w3.org/1999/xlink" enable-background="new 0 0 429.3 221.3">
<g opacity=".6" fill="#fff">
	<path d="m75.1 172.1l4.8 2.7c-1.1 4.1-3.2 7.2-6.5 9.5-3.3 2.2-7 3.4-11.2 3.4-5.6 0-10-1.8-13.4-5.4s-5-8.1-5-13.4c0-5.8 1.7-10.5 5.1-13.9s7.8-5.2 13.2-5.2c4.8 0 8.8 1.3 12.1 3.9v-3.3h4.7v11.8h-4.7c-1.1-2.4-2.7-4.2-4.9-5.6-2.2-1.3-4.5-2-6.9-2-3.7 0-6.7 1.3-9 4s-3.5 6-3.5 10c0 4.1 1.3 7.5 3.8 10.1s5.5 3.9 8.9 3.9c2.8 0 5.4-0.9 7.7-2.7 2.2-1.8 3.9-4.4 4.8-7.8z"/>
	<path d="m84.5 174.3c0-3.9 1.3-7.2 3.9-9.7s5.8-3.8 9.5-3.8 6.8 1.2 9.5 3.7c2.6 2.5 4 5.7 4 9.7s-1.3 7.3-3.9 9.8c-2.6 2.5-5.8 3.7-9.5 3.7-3.8 0-7-1.3-9.6-3.8-2.6-2.4-3.9-5.7-3.9-9.6zm5.3 0c0 2.5 0.8 4.6 2.4 6.2s3.5 2.4 5.8 2.4 4.2-0.8 5.8-2.4 2.3-3.7 2.3-6.2-0.8-4.6-2.4-6.2-3.5-2.4-5.7-2.4c-2.4 0-4.3 0.8-5.8 2.5-1.6 1.6-2.4 3.7-2.4 6.1z"/>
	<path d="m124.4 161.5v3.1c3.2-2.3 6.2-3.5 8.8-3.5 1.7 0 3 0.4 4.1 1.2s1.8 1.7 2.1 2.9c0.3 1.1 0.5 2.8 0.5 5v12.4h4.3v4.5h-9.3v-16.7c0-1.9-0.3-3.2-0.9-3.8s-1.3-0.9-2.1-0.9c-2.2 0-4.7 1.1-7.5 3.2v13.7h4.4v4.5h-13.9v-4.5h4.5v-16.6h-4.5v-4.5h9.5z"/>
	<path d="m146.6 187.1v-8.8h4.5v0.8c0.2 1.2 0.8 2.2 1.9 3s2.5 1.2 4 1.2c1.6 0 2.9-0.3 3.9-0.8 1-0.6 1.5-1.3 1.5-2.3s-0.4-1.7-1.2-2.1c-0.8-0.5-2.4-0.9-4.8-1.3-3.5-0.6-6-1.6-7.5-2.9s-2.3-3-2.3-5.2c0-2.1 0.8-3.9 2.5-5.3 1.6-1.4 3.8-2.2 6.5-2.2 2.4 0 4.5 0.5 6.2 1.5v-1.1h4.5v8.5h-4.5v-1.6c-1.4-2.1-3.3-3.1-5.9-3.1-1.3 0-2.4 0.3-3.3 0.9s-1.3 1.3-1.3 2.3 0.4 1.6 1.2 2 2.5 0.7 5 1.1 4.4 0.8 5.6 1.4 2.3 1.4 3.2 2.6c0.8 1.2 1.3 2.6 1.3 4.2 0 2.4-0.9 4.3-2.7 5.7s-4.2 2.1-7.1 2.1c-2.7 0-4.9-0.6-6.7-1.9v1.4h-4.5z"/>
	<path d="m170.8 166v-4.5h3.3v-3.9l5-4.6v8.5h4.7v4.5h-4.7v12.4c0 2 0.1 3.2 0.3 3.7s0.8 0.7 1.6 0.7c0.9 0 1.8-0.2 2.7-0.5v4.6c-1.3 0.5-2.6 0.7-3.8 0.7-1.5 0-2.8-0.3-3.7-1s-1.5-1.5-1.8-2.5c-0.2-1-0.4-2.8-0.4-5.3v-12.8h-3.2z"/>
	<path d="m191.7 182.6v-16.6h-5.1v-4.5h9.1v5.7c0.6-1.5 1.3-2.7 2.3-3.7s2.1-1.6 3.2-2c1.1-0.3 2.6-0.5 4.6-0.5h1.3v5.1h-1c-2.5 0-4.5 0.3-5.7 0.8-1.3 0.5-2.2 1.4-2.8 2.8s-0.9 3.8-0.9 7.2v5.6h5.6v4.5h-15.7v-4.5h5.1z"/>
	<path d="m238.6 182.6v4.5h-9.4v-2.9c-2.9 2.2-5.7 3.3-8.4 3.3-1.7 0-3.1-0.4-4.2-1.1s-1.9-1.7-2.2-2.9c-0.4-1.2-0.6-3.1-0.6-5.7v-11.8h-3.6v-4.5h8.6v15.6c0 1.9 0.1 3.1 0.2 3.8s0.4 1.2 0.9 1.6 1.2 0.6 1.9 0.6c2.3 0 4.8-1.1 7.4-3.3v-13.8h-4.5v-4.5h9.5v21.1h4.4z"/>
	<path d="m265.3 161.5v9.7h-4.5c-0.2-1.8-1-3.3-2.3-4.2-1.3-1-2.8-1.5-4.4-1.5-2.3 0-4.1 0.8-5.5 2.4s-2.1 3.7-2.1 6.3c0 2.4 0.7 4.5 2 6.4 1.3 1.8 3.3 2.8 5.8 2.8 3.5 0 6.1-1.7 7.6-5l4.1 2c-2.3 5.1-6.3 7.6-12 7.6-4 0-7.2-1.4-9.5-4.1-2.3-2.8-3.5-5.9-3.5-9.5 0-3.8 1.3-7 3.8-9.5s5.4-3.8 8.8-3.8c2.8 0 5.2 0.8 7.2 2.5v-1.8h4.5z"/>
	<path d="m268.9 166v-4.5h3.3v-3.9l5-4.6v8.5h4.7v4.5h-4.7v12.4c0 2 0.1 3.2 0.3 3.7s0.8 0.7 1.6 0.7c0.9 0 1.8-0.2 2.7-0.5v4.6c-1.3 0.5-2.6 0.7-3.8 0.7-1.5 0-2.8-0.3-3.7-1s-1.5-1.5-1.8-2.5c-0.2-1-0.4-2.8-0.4-5.3v-12.8h-3.2z"/>
	<path d="m307.7 182.5v-27.5h-7.6v9.4h-4.5v-13.9h29.7v13.9h-4.5v-9.4h-7.5v27.5h4.8v4.6h-15v-4.6h4.6z"/>
	<path d="m331.6 182.6v-16.6h-4v-4.5h9v21.1h4v4.5h-12.9v-4.5h3.9zm-0.7-29.7c0-0.8 0.3-1.5 0.9-2.1s1.3-0.9 2.2-0.9c0.8 0 1.5 0.3 2.1 0.9s0.9 1.3 0.9 2.1-0.3 1.6-0.9 2.1c-0.6 0.6-1.3 0.9-2.1 0.9s-1.6-0.3-2.1-0.9c-0.7-0.6-1-1.3-1-2.1z"/>
	<path d="m347.6 182.6v-16.6h-4.2v-4.5h9.3v3.2c3-2.4 6-3.6 8.9-3.6s4.9 1.3 6 4c3.3-2.7 6.4-4 9.3-4 1.7 0 3 0.4 4.1 1.1s1.8 1.7 2.1 2.8c0.4 1.1 0.6 2.8 0.6 4.9v12.7h4.5v4.5h-9.5v-16.2c0-1.5-0.1-2.5-0.2-3.1s-0.5-1.1-1-1.5-1.2-0.6-1.9-0.6c-2.1 0-4.6 1.1-7.3 3.3v13.7h4.4v4.5h-9.4v-16.7c0-1.7-0.2-2.9-0.7-3.6s-1.3-1.1-2.5-1.1c-1.9 0-4.3 1.1-7.3 3.3v13.7h4.5v4.5h-14.1v-4.5h4.4z"/>
</g>
<g fill="#fff">
	<path d="m75.6 171.7l4.8 2.7c-1.1 4.1-3.2 7.2-6.5 9.5-3.3 2.2-7 3.4-11.2 3.4-5.6 0-10-1.8-13.4-5.4s-5-8.1-5-13.4c0-5.8 1.7-10.5 5.1-13.9s7.8-5.2 13.2-5.2c4.8 0 8.8 1.3 12.1 3.9v-3.3h4.7v11.8h-4.7c-1.1-2.4-2.7-4.2-4.9-5.6-2.2-1.3-4.5-2-6.9-2-3.7 0-6.7 1.3-9 4s-3.5 6-3.5 10c0 4.1 1.3 7.5 3.8 10.1s5.5 3.9 8.9 3.9c2.8 0 5.4-0.9 7.7-2.7 2.2-1.8 3.9-4.4 4.8-7.8z"/>
	<path d="m85 173.9c0-3.9 1.3-7.2 3.9-9.7s5.8-3.8 9.5-3.8 6.8 1.2 9.5 3.7c2.6 2.5 4 5.7 4 9.7s-1.3 7.3-3.9 9.8c-2.6 2.5-5.8 3.7-9.5 3.7-3.8 0-7-1.3-9.6-3.8s-3.9-5.7-3.9-9.6zm5.3 0c0 2.5 0.8 4.6 2.4 6.2s3.5 2.4 5.8 2.4 4.2-0.8 5.8-2.4 2.3-3.7 2.3-6.2-0.8-4.6-2.4-6.2-3.5-2.4-5.7-2.4c-2.4 0-4.3 0.8-5.8 2.5-1.6 1.6-2.4 3.6-2.4 6.1z"/>
	<path d="m124.9 161.1v3.1c3.2-2.3 6.2-3.5 8.8-3.5 1.7 0 3 0.4 4.1 1.2s1.8 1.7 2.1 2.9c0.3 1.1 0.5 2.8 0.5 5v12.4h4.3v4.5h-9.3v-16.7c0-1.9-0.3-3.2-0.9-3.8s-1.3-0.9-2.1-0.9c-2.2 0-4.7 1.1-7.5 3.2v13.7h4.4v4.5h-13.9v-4.5h4.5v-16.6h-4.5v-4.5h9.5z"/>
	<path d="m147.1 186.6v-8.8h4.5v0.8c0.2 1.2 0.8 2.2 1.9 3s2.5 1.2 4 1.2c1.6 0 2.9-0.3 3.9-0.8 1-0.6 1.5-1.3 1.5-2.3s-0.4-1.7-1.2-2.1c-0.8-0.5-2.4-0.9-4.8-1.3-3.5-0.6-6-1.6-7.5-2.9s-2.3-3-2.3-5.2c0-2.1 0.8-3.9 2.5-5.3 1.6-1.4 3.8-2.2 6.5-2.2 2.4 0 4.5 0.5 6.2 1.5v-1.1h4.5v8.5h-4.5v-1.6c-1.4-2.1-3.3-3.1-5.9-3.1-1.3 0-2.4 0.3-3.3 0.9s-1.3 1.3-1.3 2.3 0.4 1.6 1.2 2 2.5 0.7 5 1.1 4.4 0.8 5.6 1.4 2.3 1.4 3.2 2.6c0.8 1.2 1.3 2.6 1.3 4.2 0 2.4-0.9 4.3-2.7 5.7s-4.2 2.1-7.1 2.1c-2.7 0-4.9-0.6-6.7-1.9v1.4h-4.5z"/>
	<path d="m171.2 165.6v-4.5h3.3v-3.9l5-4.6v8.5h4.7v4.5h-4.7v12.4c0 2 0.1 3.2 0.3 3.7s0.8 0.7 1.6 0.7c0.9 0 1.8-0.2 2.7-0.5v4.6c-1.3 0.5-2.6 0.7-3.8 0.7-1.5 0-2.8-0.3-3.7-1s-1.5-1.5-1.8-2.5c-0.2-1-0.4-2.8-0.4-5.3v-12.7h-3.2z"/>
	<path d="m192.2 182.2v-16.6h-5.1v-4.5h9.1v5.7c0.6-1.5 1.3-2.7 2.3-3.7s2.1-1.6 3.2-2c1.1-0.3 2.6-0.5 4.6-0.5h1.3v5.1h-1c-2.5 0-4.5 0.3-5.7 0.8-1.3 0.5-2.2 1.4-2.8 2.8s-0.9 3.8-0.9 7.2v5.6h5.6v4.5h-15.7v-4.5h5.1z"/>
	<path d="m239.1 182.2v4.5h-9.4v-2.9c-2.9 2.2-5.7 3.3-8.4 3.3-1.7 0-3.1-0.4-4.2-1.1s-1.9-1.7-2.2-2.9c-0.4-1.2-0.6-3.1-0.6-5.7v-11.7h-3.6v-4.5h8.6v15.6c0 1.9 0.1 3.1 0.2 3.8s0.4 1.2 0.9 1.6 1.2 0.6 1.9 0.6c2.3 0 4.8-1.1 7.4-3.3v-13.8h-4.5v-4.5h9.5v21.1h4.4z"/>
	<path d="m265.7 161.1v9.7h-4.5c-0.2-1.8-1-3.3-2.3-4.2-1.3-1-2.8-1.5-4.4-1.5-2.3 0-4.1 0.8-5.5 2.4s-2.1 3.7-2.1 6.3c0 2.4 0.7 4.5 2 6.4 1.3 1.8 3.3 2.8 5.8 2.8 3.5 0 6.1-1.7 7.6-5l4.1 2c-2.3 5.1-6.3 7.6-12 7.6-4 0-7.2-1.4-9.5-4.1-2.3-2.8-3.5-5.9-3.5-9.5 0-3.8 1.3-7 3.8-9.5s5.4-3.8 8.8-3.8c2.8 0 5.2 0.8 7.2 2.5v-1.8h4.5z"/>
	<path d="m269.4 165.6v-4.5h3.3v-3.9l5-4.6v8.5h4.7v4.5h-4.7v12.4c0 2 0.1 3.2 0.3 3.7s0.8 0.7 1.6 0.7c0.9 0 1.8-0.2 2.7-0.5v4.6c-1.3 0.5-2.6 0.7-3.8 0.7-1.5 0-2.8-0.3-3.7-1s-1.5-1.5-1.8-2.5c-0.2-1-0.4-2.8-0.4-5.3v-12.7h-3.2z"/>
	<path d="m308.1 182v-27.5h-7.6v9.4h-4.5v-13.9h29.7v13.9h-4.5v-9.4h-7.5v27.5h4.8v4.6h-15v-4.6h4.6z"/>
	<path d="m332.1 182.2v-16.6h-4v-4.5h9v21.1h4v4.5h-12.9v-4.5h3.9zm-0.7-29.8c0-0.8 0.3-1.5 0.9-2.1s1.3-0.9 2.2-0.9c0.8 0 1.5 0.3 2.1 0.9s0.9 1.3 0.9 2.1-0.3 1.6-0.9 2.1c-0.6 0.6-1.3 0.9-2.1 0.9s-1.6-0.3-2.1-0.9c-0.7-0.5-1-1.2-1-2.1z"/>
	<path d="m348.1 182.2v-16.6h-4.2v-4.5h9.3v3.2c3-2.4 6-3.6 8.9-3.6s4.9 1.3 6 4c3.3-2.7 6.4-4 9.3-4 1.7 0 3 0.4 4.1 1.1s1.8 1.7 2.1 2.8c0.4 1.1 0.6 2.8 0.6 4.9v12.7h4.5v4.5h-9.5v-16.2c0-1.5-0.1-2.5-0.2-3.1s-0.5-1.1-1-1.5-1.2-0.6-1.9-0.6c-2.1 0-4.6 1.1-7.3 3.3v13.7h4.4v4.5h-9.4v-16.7c0-1.7-0.2-2.9-0.7-3.6s-1.3-1.1-2.5-1.1c-1.9 0-4.3 1.1-7.3 3.3v13.7h4.5v4.5h-14.1v-4.5h4.4z"/>
</g>
	<path d="m307.6 123.3c-0.1 0-0.2 0-0.3-0.1l-113.3-113.4c-0.1-0.1-0.1-0.4 0-0.5s0.4-0.1 0.5 0l113.4 113.4c0.1 0.1 0.1 0.4 0 0.5-0.1 0-0.2 0.1-0.3 0.1z" fill="#fff"/>
	<rect y="192.6" x="42.6" height="3" width="346.9" fill="#fff"/>
	<path d="m149.9 95.2c-0.1 0-0.2 0-0.3-0.1s-0.1-0.4 0-0.5l91.2-91.2c0.1-0.1 0.4-0.1 0.5 0s0.1 0.4 0 0.5l-91.2 91.2c0 0.1-0.1 0.1-0.2 0.1z" fill="#fff"/>
	<path d="m234.8 128.3h-84.9c-0.2 0-0.4-0.2-0.4-0.4s0.2-0.4 0.4-0.4h84.9c0.2 0 0.4 0.2 0.4 0.4 0 0.3-0.2 0.4-0.4 0.4z" fill="#fff"/>
	<path d="m175.1 147.4c-0.2 0-0.4-0.2-0.4-0.4v-106c0-0.2 0.2-0.4 0.4-0.4s0.4 0.2 0.4 0.4v106c0 0.3-0.2 0.4-0.4 0.4z" fill="#fff"/>
	<path d="m255.6 147.4c-0.2 0-0.4-0.2-0.4-0.4v-106c0-0.2 0.2-0.4 0.4-0.4s0.4 0.2 0.4 0.4v106c0 0.3-0.2 0.4-0.4 0.4z" fill="#fff"/>
<g opacity=".23">
	<path d="m184.4 79.1c-0.1 0-0.2 0-0.3-0.1l-0.2-0.2c-0.1-0.1-0.1-0.4 0-0.5s0.4-0.1 0.5 0l0.2 0.2c0.1 0.1 0.1 0.4 0 0.5 0 0.1-0.1 0.1-0.2 0.1zm-0.9-0.9c-0.1 0-0.2 0-0.3-0.1l-0.7-0.7c-0.1-0.1-0.1-0.4 0-0.5s0.4-0.1 0.5 0l0.7 0.7c0.1 0.1 0.1 0.4 0 0.5 0 0.1-0.1 0.1-0.2 0.1zm-1.4-1.4c-0.1 0-0.2 0-0.3-0.1l-0.7-0.7c-0.1-0.1-0.1-0.4 0-0.5s0.4-0.1 0.5 0l0.7 0.7c0.1 0.1 0.1 0.4 0 0.5 0 0-0.1 0.1-0.2 0.1zm-1.4-1.4c-0.1 0-0.2 0-0.3-0.1l-0.7-0.7c-0.1-0.1-0.1-0.4 0-0.5s0.4-0.1 0.5 0l0.7 0.7c0.1 0.1 0.1 0.4 0 0.5 0 0-0.1 0.1-0.2 0.1zm-1.4-1.5c-0.1 0-0.2 0-0.3-0.1l-0.7-0.7c-0.1-0.1-0.1-0.4 0-0.5s0.4-0.1 0.5 0l0.7 0.7c0.1 0.1 0.1 0.4 0 0.5s-0.2 0.1-0.2 0.1zm-1.5-1.4c-0.1 0-0.2 0-0.3-0.1l-0.7-0.7c-0.1-0.1-0.1-0.4 0-0.5s0.4-0.1 0.5 0l0.7 0.7c0.1 0.1 0.1 0.4 0 0.5 0 0.1-0.1 0.1-0.2 0.1zm-1.4-1.4c-0.1 0-0.2 0-0.3-0.1l-0.7-0.7c-0.1-0.1-0.1-0.4 0-0.5s0.4-0.1 0.5 0l0.7 0.7c0.1 0.1 0.1 0.4 0 0.5 0 0.1-0.1 0.1-0.2 0.1zm-1.4-1.4c-0.1 0-0.2 0-0.3-0.1l-0.7-0.7c-0.1-0.1-0.1-0.4 0-0.5s0.4-0.1 0.5 0l0.7 0.7c0.1 0.1 0.1 0.4 0 0.5 0 0.1-0.1 0.1-0.2 0.1zm-1.4-1.4c-0.1 0-0.2 0-0.3-0.1l-0.7-0.7c-0.1-0.1-0.1-0.4 0-0.5s0.4-0.1 0.5 0l0.7 0.7c0.1 0.1 0.1 0.4 0 0.5 0 0.1-0.1 0.1-0.2 0.1zm-1.4-1.4c-0.1 0-0.2 0-0.3-0.1l-0.7-0.7c-0.1-0.1-0.1-0.4 0-0.5s0.4-0.1 0.5 0l0.7 0.7c0.1 0.1 0.1 0.4 0 0.5 0 0-0.1 0.1-0.2 0.1zm-1.4-1.4c-0.1 0-0.2 0-0.3-0.1l-0.7-0.7c-0.1-0.1-0.1-0.4 0-0.5s0.4-0.1 0.5 0l0.7 0.7c0.1 0.1 0.1 0.4 0 0.5 0 0-0.1 0.1-0.2 0.1zm-1.4-1.5c-0.1 0-0.2 0-0.3-0.1l-0.7-0.7c-0.1-0.1-0.1-0.4 0-0.5s0.4-0.1 0.5 0l0.7 0.7c0.1 0.1 0.1 0.4 0 0.5s-0.2 0.1-0.2 0.1zm-1.5-1.4c-0.1 0-0.2 0-0.3-0.1l-0.7-0.7c-0.1-0.1-0.1-0.4 0-0.5s0.4-0.1 0.5 0l0.7 0.7c0.1 0.1 0.1 0.4 0 0.5 0 0.1-0.1 0.1-0.2 0.1zm-1.4-1.4c-0.1 0-0.2 0-0.3-0.1l-0.7-0.7c-0.1-0.1-0.1-0.4 0-0.5s0.4-0.1 0.5 0l0.7 0.7c0.1 0.1 0.1 0.4 0 0.5 0 0.1-0.1 0.1-0.2 0.1z" fill="#fff"/>
</g>
<g opacity=".23">
	<path d="m246.3 81.1c-0.1 0-0.2 0-0.3-0.1s-0.1-0.4 0-0.5l0.2-0.2c0.1-0.1 0.4-0.1 0.5 0s0.1 0.4 0 0.5l-0.2 0.2s-0.1 0.1-0.2 0.1zm1-1c-0.1 0-0.2 0-0.3-0.1s-0.1-0.4 0-0.5l0.7-0.7c0.1-0.1 0.4-0.1 0.5 0s0.1 0.4 0 0.5l-0.7 0.7c0 0.1-0.1 0.1-0.2 0.1zm1.4-1.4c-0.1 0-0.2 0-0.3-0.1s-0.1-0.4 0-0.5l0.7-0.7c0.1-0.1 0.4-0.1 0.5 0s0.1 0.4 0 0.5l-0.7 0.7c0 0.1-0.1 0.1-0.2 0.1zm1.4-1.4c-0.1 0-0.2 0-0.3-0.1s-0.1-0.4 0-0.5l0.7-0.7c0.1-0.1 0.4-0.1 0.5 0s0.1 0.4 0 0.5l-0.7 0.7c0 0.1-0.1 0.1-0.2 0.1zm1.4-1.4c-0.1 0-0.2 0-0.3-0.1s-0.1-0.4 0-0.5l0.7-0.7c0.1-0.1 0.4-0.1 0.5 0s0.1 0.4 0 0.5l-0.7 0.7s-0.1 0.1-0.2 0.1zm1.4-1.4c-0.1 0-0.2 0-0.3-0.1s-0.1-0.4 0-0.5l0.7-0.7c0.1-0.1 0.4-0.1 0.5 0s0.1 0.4 0 0.5l-0.7 0.7s-0.1 0.1-0.2 0.1zm1.4-1.5c-0.1 0-0.2 0-0.3-0.1s-0.1-0.4 0-0.5l0.7-0.7c0.1-0.1 0.4-0.1 0.5 0s0.1 0.4 0 0.5l-0.7 0.7c0 0.1-0.1 0.1-0.2 0.1zm1.4-1.4c-0.1 0-0.2 0-0.3-0.1s-0.1-0.4 0-0.5l0.7-0.7c0.1-0.1 0.4-0.1 0.5 0s0.1 0.4 0 0.5l-0.7 0.7c0 0.1-0.1 0.1-0.2 0.1zm1.5-1.4c-0.1 0-0.2 0-0.3-0.1s-0.1-0.4 0-0.5l0.7-0.7c0.1-0.1 0.4-0.1 0.5 0s0.1 0.4 0 0.5l-0.7 0.7c0 0.1-0.1 0.1-0.2 0.1zm1.4-1.4c-0.1 0-0.2 0-0.3-0.1s-0.1-0.4 0-0.5l0.7-0.7c0.1-0.1 0.4-0.1 0.5 0s0.1 0.4 0 0.5l-0.7 0.7c0 0.1-0.1 0.1-0.2 0.1zm1.4-1.4c-0.1 0-0.2 0-0.3-0.1s-0.1-0.4 0-0.5l0.7-0.7c0.1-0.1 0.4-0.1 0.5 0s0.1 0.4 0 0.5l-0.7 0.7c0 0.1-0.1 0.1-0.2 0.1zm1.4-1.4c-0.1 0-0.2 0-0.3-0.1s-0.1-0.4 0-0.5l0.7-0.7c0.1-0.1 0.4-0.1 0.5 0s0.1 0.4 0 0.5l-0.7 0.7s-0.1 0.1-0.2 0.1zm1.4-1.4c-0.1 0-0.2 0-0.3-0.1s-0.1-0.4 0-0.5l0.7-0.7c0.1-0.1 0.4-0.1 0.5 0s0.1 0.4 0 0.5l-0.7 0.7s-0.1 0.1-0.2 0.1zm1.4-1.5c-0.1 0-0.2 0-0.3-0.1s-0.1-0.4 0-0.5l0.7-0.7c0.1-0.1 0.4-0.1 0.5 0s0.1 0.4 0 0.5l-0.7 0.7c0 0.1-0.1 0.1-0.2 0.1z" fill="#fff"/>
</g>
<g opacity=".23">
	<path d="m184.9 138.1c-0.1 0-0.2 0-0.3-0.1l-0.2-0.2c-0.1-0.1-0.1-0.4 0-0.5s0.4-0.1 0.5 0l0.2 0.2c0.1 0.1 0.1 0.4 0 0.5 0 0.1-0.1 0.1-0.2 0.1zm-1-0.9c-0.1 0-0.2 0-0.3-0.1l-0.7-0.7c-0.1-0.1-0.1-0.4 0-0.5s0.4-0.1 0.5 0l0.7 0.7c0.1 0.1 0.1 0.4 0 0.5 0 0-0.1 0.1-0.2 0.1zm-1.4-1.5c-0.1 0-0.2 0-0.3-0.1l-0.7-0.7c-0.1-0.1-0.1-0.4 0-0.5s0.4-0.1 0.5 0l0.7 0.7c0.1 0.1 0.1 0.4 0 0.5 0 0.1-0.1 0.1-0.2 0.1zm-1.4-1.4c-0.1 0-0.2 0-0.3-0.1l-0.7-0.7c-0.1-0.1-0.1-0.4 0-0.5s0.4-0.1 0.5 0l0.7 0.7c0.1 0.1 0.1 0.4 0 0.5 0 0.1-0.1 0.1-0.2 0.1zm-1.4-1.4c-0.1 0-0.2 0-0.3-0.1l-0.7-0.7c-0.1-0.1-0.1-0.4 0-0.5s0.4-0.1 0.5 0l0.7 0.7c0.1 0.1 0.1 0.4 0 0.5 0 0.1-0.1 0.1-0.2 0.1zm-1.4-1.4c-0.1 0-0.2 0-0.3-0.1l-0.7-0.7c-0.1-0.1-0.1-0.4 0-0.5s0.4-0.1 0.5 0l0.7 0.7c0.1 0.1 0.1 0.4 0 0.5 0 0.1-0.1 0.1-0.2 0.1zm-1.4-1.4c-0.1 0-0.2 0-0.3-0.1l-0.7-0.7c-0.1-0.1-0.1-0.4 0-0.5s0.4-0.1 0.5 0l0.7 0.7c0.1 0.1 0.1 0.4 0 0.5 0 0-0.1 0.1-0.2 0.1zm-1.4-1.4c-0.1 0-0.2 0-0.3-0.1l-0.7-0.7c-0.1-0.1-0.1-0.4 0-0.5s0.4-0.1 0.5 0l0.7 0.7c0.1 0.1 0.1 0.4 0 0.5-0.1 0-0.2 0.1-0.2 0.1zm-1.5-1.4c-0.1 0-0.2 0-0.3-0.1l-0.7-0.7c-0.1-0.1-0.1-0.4 0-0.5s0.4-0.1 0.5 0l0.7 0.7c0.1 0.1 0.1 0.4 0 0.5 0 0-0.1 0.1-0.2 0.1zm-1.4-1.5c-0.1 0-0.2 0-0.3-0.1l-0.7-0.7c-0.1-0.1-0.1-0.4 0-0.5s0.4-0.1 0.5 0l0.7 0.7c0.1 0.1 0.1 0.4 0 0.5 0 0.1-0.1 0.1-0.2 0.1zm-1.4-1.4c-0.1 0-0.2 0-0.3-0.1l-0.7-0.7c-0.1-0.1-0.1-0.4 0-0.5s0.4-0.1 0.5 0l0.7 0.7c0.1 0.1 0.1 0.4 0 0.5 0 0.1-0.1 0.1-0.2 0.1zm-1.4-1.4c-0.1 0-0.2 0-0.3-0.1l-0.7-0.7c-0.1-0.1-0.1-0.4 0-0.5s0.4-0.1 0.5 0l0.7 0.7c0.1 0.1 0.1 0.4 0 0.5 0 0.1-0.1 0.1-0.2 0.1zm-1.4-1.4c-0.1 0-0.2 0-0.3-0.1l-0.7-0.7c-0.1-0.1-0.1-0.4 0-0.5s0.4-0.1 0.5 0l0.7 0.7c0.1 0.1 0.1 0.4 0 0.5 0 0.1-0.1 0.1-0.2 0.1zm-1.4-1.4c-0.1 0-0.2 0-0.3-0.1l-0.7-0.7c-0.1-0.1-0.1-0.4 0-0.5s0.4-0.1 0.5 0l0.7 0.7c0.1 0.1 0.1 0.4 0 0.5 0 0-0.1 0.1-0.2 0.1z" fill="#fff"/>
</g>
	<path d="m215.9 130.5h-43.3v-62l45.8-45.8v21.1c0 1.4-1.1 2.5-2.5 2.5s-2.5-1.1-2.5-2.5v-9l-35.8 35.8v54.9h38.3c1.4 0 2.5 1.1 2.5 2.5s-1.1 2.5-2.5 2.5z" fill="#fff"/>
	<path d="m270.2 87.9c-0.6 0-1.3-0.2-1.8-0.7l-46.4-46.5c-1-1-1-2.6 0-3.5 1-1 2.6-1 3.5 0l46.5 46.4c1 1 1 2.6 0 3.5-0.5 0.5-1.1 0.8-1.8 0.8z" fill="#fff"/>
	<path d="m255.6 130.5c-1.4 0-2.5-1.1-2.5-2.5v-56.2c0-1.4 1.1-2.5 2.5-2.5s2.5 1.1 2.5 2.5v56.2c0 1.4-1.1 2.5-2.5 2.5z" fill="#fff"/>
<g opacity=".8" fill="#fff">
	<path d="m20.5 209.6l1.9 1.1c-0.4 1.7-1.3 2.9-2.6 3.9-1.3 0.9-2.9 1.4-4.6 1.4-2.3 0-4.1-0.7-5.4-2.2-1.4-1.5-2.1-3.3-2.1-5.4 0-2.4 0.7-4.3 2.1-5.7s3.2-2.1 5.4-2.1c2 0 3.6 0.5 4.9 1.6v-1.4h1.9v4.8h-1.9c-0.4-1-1.1-1.7-2-2.3-0.9-0.5-1.8-0.8-2.8-0.8-1.5 0-2.7 0.5-3.7 1.6s-1.4 2.4-1.4 4.1c0 1.7 0.5 3.1 1.5 4.1 1 1.1 2.2 1.6 3.6 1.6 1.2 0 2.2-0.4 3.1-1.1 1.1-0.8 1.7-1.9 2.1-3.2z"/>
	<path d="m24 210.4c0-1.6 0.5-2.9 1.6-3.9s2.4-1.5 3.9-1.5 2.8 0.5 3.9 1.5 1.6 2.3 1.6 4-0.5 3-1.6 4c-1.1 1-2.4 1.5-3.9 1.5s-2.8-0.5-3.9-1.5c-1.1-1.1-1.6-2.5-1.6-4.1zm2.2 0c0 1 0.3 1.9 1 2.5 0.6 0.7 1.4 1 2.3 1s1.7-0.3 2.4-1c0.6-0.7 1-1.5 1-2.5s-0.3-1.9-1-2.5c-0.6-0.7-1.4-1-2.3-1-1 0-1.8 0.3-2.4 1s-1 1.5-1 2.5z"/>
	<path d="m39.9 205.2v1.3c1.3-0.9 2.5-1.4 3.6-1.4 0.7 0 1.2 0.2 1.7 0.5 0.4 0.3 0.7 0.7 0.9 1.2 0.1 0.5 0.2 1.1 0.2 2v5.1h1.7v1.8h-3.8v-6.8c0-0.8-0.1-1.3-0.4-1.5-0.2-0.2-0.5-0.4-0.9-0.4-0.9 0-1.9 0.4-3.1 1.3v5.6h1.8v1.8h-5.7v-1.8h1.8v-6.8h-1.8v-1.8h4z"/>
	<path d="m48.7 215.6v-3.6h1.8v0.3c0.1 0.5 0.3 0.9 0.8 1.2s1 0.5 1.6 0.5c0.7 0 1.2-0.1 1.6-0.3s0.6-0.5 0.6-1c0-0.4-0.2-0.7-0.5-0.9s-1-0.4-1.9-0.5c-1.4-0.2-2.5-0.6-3.1-1.2-0.6-0.5-0.9-1.2-0.9-2.1s0.3-1.6 1-2.2 1.5-0.9 2.6-0.9c1 0 1.8 0.2 2.5 0.6v-0.4h1.8v3.4h-1.8v-0.5c-0.6-0.9-1.4-1.3-2.4-1.3-0.5 0-1 0.1-1.3 0.3s-0.5 0.5-0.5 0.9 0.2 0.7 0.5 0.8 1 0.3 2.1 0.5c1 0.2 1.8 0.3 2.3 0.6 0.5 0.2 0.9 0.6 1.3 1.1 0.3 0.5 0.5 1.1 0.5 1.7 0 1-0.4 1.7-1.1 2.3s-1.7 0.9-2.9 0.9c-1.1 0-2-0.3-2.7-0.8v0.6h-1.9z"/>
	<path d="m58.2 207.1v-1.8h1.4v-1.6l2-1.9v3.5h1.9v1.8h-1.9v5c0 0.8 0 1.3 0.1 1.5s0.3 0.3 0.7 0.3 0.8-0.1 1.1-0.2v1.9c-0.5 0.2-1 0.3-1.6 0.3s-1.1-0.1-1.5-0.4-0.6-0.6-0.7-1-0.2-1.1-0.2-2.1v-5.2h-1.3z"/>
	<path d="m66.4 213.8v-6.8h-2.1v-1.8h3.7v2.3c0.2-0.6 0.5-1.1 1-1.5s0.8-0.7 1.3-0.8c0.5-0.1 1.1-0.2 1.9-0.2h0.5v2.1h-0.4c-1 0-1.8 0.1-2.3 0.3s-0.9 0.6-1.1 1.1-0.4 1.5-0.4 2.9v2.3h2.3v1.8h-6.4v-1.8h2z"/>
	<path d="m85.2 213.8v1.8h-3.8v-1.2c-1.2 0.9-2.3 1.4-3.4 1.4-0.7 0-1.3-0.2-1.7-0.5-0.5-0.3-0.8-0.7-0.9-1.2-0.2-0.5-0.2-1.3-0.2-2.3v-4.8h-1.5v-1.8h3.5v6.3c0 0.8 0 1.3 0.1 1.5s0.2 0.5 0.4 0.7c0.2 0.2 0.5 0.3 0.8 0.3 0.9 0 2-0.5 3-1.4v-5.6h-1.8v-1.8h3.9v8.6h1.6z"/>
	<path d="m95.7 205.2v3.9h-1.8c-0.1-0.8-0.4-1.3-0.9-1.7s-1.1-0.6-1.8-0.6c-0.9 0-1.7 0.3-2.2 1-0.6 0.6-0.9 1.5-0.9 2.6 0 1 0.3 1.8 0.8 2.6 0.5 0.7 1.3 1.1 2.4 1.1 1.4 0 2.5-0.7 3.1-2l1.7 0.8c-0.9 2.1-2.6 3.1-4.9 3.1-1.6 0-2.9-0.6-3.9-1.7s-1.4-2.4-1.4-3.9c0-1.6 0.5-2.9 1.5-3.9s2.2-1.5 3.6-1.5c1.2 0 2.1 0.3 2.9 1v-0.7h1.8z"/>
	<path d="m96.8 207.1v-1.8h1.4v-1.6l2-1.9v3.5h1.9v1.8h-1.9v5c0 0.8 0 1.3 0.1 1.5s0.3 0.3 0.7 0.3 0.8-0.1 1.1-0.2v1.9c-0.5 0.2-1 0.3-1.6 0.3s-1.1-0.1-1.5-0.4-0.6-0.6-0.7-1-0.2-1.1-0.2-2.1v-5.2h-1.3z"/>
	<path d="m104.8 213.8v-6.8h-1.6v-1.8h3.7v8.6h1.6v1.8h-5.3v-1.8h1.6zm-0.3-12.1c0-0.3 0.1-0.6 0.3-0.9 0.2-0.2 0.5-0.4 0.9-0.4 0.3 0 0.6 0.1 0.9 0.4 0.2 0.2 0.4 0.5 0.4 0.9s-0.1 0.6-0.4 0.9c-0.2 0.2-0.5 0.4-0.9 0.4-0.3 0-0.6-0.1-0.9-0.4-0.2-0.3-0.3-0.6-0.3-0.9z"/>
	<path d="m109.4 210.4c0-1.6 0.5-2.9 1.6-3.9s2.4-1.5 3.9-1.5 2.8 0.5 3.9 1.5 1.6 2.3 1.6 4-0.5 3-1.6 4c-1.1 1-2.4 1.5-3.9 1.5s-2.8-0.5-3.9-1.5c-1.1-1.1-1.6-2.5-1.6-4.1zm2.2 0c0 1 0.3 1.9 1 2.5 0.6 0.7 1.4 1 2.3 1s1.7-0.3 2.4-1c0.6-0.7 1-1.5 1-2.5s-0.3-1.9-1-2.5c-0.6-0.7-1.4-1-2.3-1-1 0-1.8 0.3-2.4 1s-1 1.5-1 2.5z"/>
	<path d="m125.3 205.2v1.3c1.3-0.9 2.5-1.4 3.6-1.4 0.7 0 1.2 0.2 1.7 0.5 0.4 0.3 0.7 0.7 0.9 1.2 0.1 0.5 0.2 1.1 0.2 2v5.1h1.8v1.8h-3.8v-6.8c0-0.8-0.1-1.3-0.4-1.5-0.2-0.2-0.5-0.4-0.9-0.4-0.9 0-1.9 0.4-3.1 1.3v5.6h1.8v1.8h-5.7v-1.8h1.8v-6.8h-1.8v-1.8h3.9z"/>
	<path d="m139 209.5h6.4v2h-6.4v-2z"/>
	<path d="m155.2 213.8v-11.2h-3.1v3.8h-1.8v-5.7h12.1v5.7h-1.8v-3.8h-3.1v11.2h1.9v1.9h-6.1v-1.9h1.9z"/>
	<path d="m164.9 213.8v-6.8h-2.1v-1.8h3.7v2.3c0.2-0.6 0.5-1.1 1-1.5s0.8-0.7 1.3-0.8c0.5-0.1 1.1-0.2 1.9-0.2h0.5v2.1h-0.4c-1 0-1.8 0.1-2.3 0.3s-0.9 0.6-1.1 1.1-0.4 1.5-0.4 2.9v2.3h2.3v1.8h-6.4v-1.8h2z"/>
	<path d="m182 213.8v1.8h-3.6v-1.3c-1 1-2.1 1.4-3.3 1.4-0.9 0-1.8-0.3-2.5-0.9s-1-1.4-1-2.4c0-1 0.4-1.8 1.1-2.4s1.6-1 2.7-1c1 0 1.9 0.3 2.8 0.9v-1c0-0.5-0.1-0.9-0.2-1.2s-0.3-0.5-0.7-0.8c-0.4-0.2-0.9-0.3-1.4-0.3-1 0-1.8 0.4-2.2 1.2l-2-0.5c0.9-1.6 2.4-2.4 4.5-2.4 0.8 0 1.5 0.1 2 0.3 0.6 0.2 1 0.5 1.3 0.8s0.5 0.7 0.6 1.1 0.1 1 0.1 1.8v4.8h1.8zm-3.7-2c-0.9-0.7-1.8-1-2.7-1-0.6 0-1 0.2-1.4 0.5s-0.6 0.8-0.6 1.3 0.2 0.9 0.5 1.2 0.8 0.5 1.4 0.5c1 0 1.9-0.4 2.8-1.2v-1.3z"/>
	<path d="m186.4 205.2v1.3c1.3-0.9 2.5-1.4 3.6-1.4 0.7 0 1.2 0.2 1.7 0.5 0.4 0.3 0.7 0.7 0.9 1.2 0.1 0.5 0.2 1.1 0.2 2v5.1h1.8v1.8h-3.8v-6.8c0-0.8-0.1-1.3-0.4-1.5-0.2-0.2-0.5-0.4-0.9-0.4-0.9 0-1.9 0.4-3.1 1.3v5.6h1.8v1.8h-5.7v-1.8h1.8v-6.8h-1.8v-1.8h3.9z"/>
	<path d="m195.2 215.6v-3.6h1.8v0.3c0.1 0.5 0.3 0.9 0.8 1.2s1 0.5 1.6 0.5c0.7 0 1.2-0.1 1.6-0.3s0.6-0.5 0.6-1c0-0.4-0.2-0.7-0.5-0.9s-1-0.4-1.9-0.5c-1.4-0.2-2.5-0.6-3.1-1.2-0.6-0.5-0.9-1.2-0.9-2.1s0.3-1.6 1-2.2 1.5-0.9 2.6-0.9c1 0 1.8 0.2 2.5 0.6v-0.4h1.8v3.4h-1.8v-0.5c-0.6-0.9-1.4-1.3-2.4-1.3-0.5 0-1 0.1-1.3 0.3s-0.5 0.5-0.5 0.9 0.2 0.7 0.5 0.8 1 0.3 2.1 0.5c1 0.2 1.8 0.3 2.3 0.6 0.5 0.2 0.9 0.6 1.3 1.1 0.3 0.5 0.5 1.1 0.5 1.7 0 1-0.4 1.7-1.1 2.3s-1.7 0.9-2.9 0.9c-1.1 0-2-0.3-2.7-0.8v0.6h-1.9z"/>
	<path d="m206.1 213.8v-6.8h-1.5v-1.8h1.5v-1.5c0-1.3 0.3-2.1 0.8-2.6s1.2-0.7 1.9-0.7c1.6 0 2.5 0.8 2.7 2.4l-1.8 0.3c-0.1-0.7-0.3-1-0.8-1-0.3 0-0.5 0.1-0.6 0.3s-0.2 0.7-0.2 1.4v1.5h1.8v1.8h-1.8v6.8h2v1.8h-5.5v-1.8h1.5z"/>
	<path d="m211.4 210.4c0-1.6 0.5-2.9 1.6-3.9s2.4-1.5 3.9-1.5 2.8 0.5 3.9 1.5 1.6 2.3 1.6 4-0.5 3-1.6 4c-1.1 1-2.4 1.5-3.9 1.5s-2.8-0.5-3.9-1.5c-1.1-1.1-1.6-2.5-1.6-4.1zm2.1 0c0 1 0.3 1.9 1 2.5 0.6 0.7 1.4 1 2.3 1s1.7-0.3 2.4-1c0.6-0.7 1-1.5 1-2.5s-0.3-1.9-1-2.5c-0.6-0.7-1.4-1-2.3-1-1 0-1.8 0.3-2.4 1s-1 1.5-1 2.5z"/>
	<path d="m225.4 213.8v-6.8h-2.1v-1.8h3.7v2.3c0.2-0.6 0.5-1.1 1-1.5s0.8-0.7 1.3-0.8c0.5-0.1 1.1-0.2 1.9-0.2h0.5v2.1h-0.4c-1 0-1.8 0.1-2.3 0.3s-0.9 0.6-1.1 1.1-0.4 1.5-0.4 2.9v2.3h2.3v1.8h-6.4v-1.8h2z"/>
	<path d="m234.1 213.8v-6.8h-1.7v-1.8h3.8v1.3c1.2-1 2.4-1.5 3.6-1.5s2 0.5 2.5 1.6c1.4-1.1 2.6-1.6 3.8-1.6 0.7 0 1.2 0.1 1.7 0.4 0.4 0.3 0.7 0.7 0.9 1.1 0.2 0.5 0.2 1.1 0.2 2v5.2h1.8v1.8h-3.9v-6.5c0-0.6 0-1-0.1-1.3-0.1-0.2-0.2-0.5-0.4-0.6-0.2-0.2-0.5-0.2-0.8-0.2-0.9 0-1.9 0.4-3 1.3v5.6h1.8v1.8h-3.8v-6.8c0-0.7-0.1-1.2-0.3-1.5s-0.5-0.5-1-0.5c-0.8 0-1.8 0.4-3 1.3v5.6h1.8v1.8h-5.7v-1.8h1.8z"/>
	<path d="m261.8 213.8v1.8h-3.6v-1.3c-1 1-2.1 1.4-3.3 1.4-0.9 0-1.8-0.3-2.5-0.9s-1-1.4-1-2.4c0-1 0.4-1.8 1.1-2.4s1.6-1 2.7-1c1 0 1.9 0.3 2.8 0.9v-1c0-0.5-0.1-0.9-0.2-1.2s-0.3-0.5-0.7-0.8c-0.4-0.2-0.9-0.3-1.4-0.3-1 0-1.8 0.4-2.2 1.2l-2-0.5c0.9-1.6 2.4-2.4 4.5-2.4 0.8 0 1.5 0.1 2 0.3 0.6 0.2 1 0.5 1.3 0.8s0.5 0.7 0.6 1.1 0.1 1 0.1 1.8v4.8h1.8zm-3.8-2c-0.9-0.7-1.8-1-2.7-1-0.6 0-1 0.2-1.4 0.5s-0.6 0.8-0.6 1.3 0.2 0.9 0.5 1.2 0.8 0.5 1.4 0.5c1 0 1.9-0.4 2.8-1.2v-1.3z"/>
	<path d="m262.4 207.1v-1.8h1.4v-1.6l2-1.9v3.5h1.9v1.8h-1.9v5c0 0.8 0 1.3 0.1 1.5s0.3 0.3 0.7 0.3 0.8-0.1 1.1-0.2v1.9c-0.5 0.2-1 0.3-1.6 0.3s-1.1-0.1-1.5-0.4-0.6-0.6-0.7-1-0.2-1.1-0.2-2.1v-5.2h-1.3z"/>
	<path d="m270.4 213.8v-6.8h-1.6v-1.8h3.7v8.6h1.6v1.8h-5.3v-1.8h1.6zm-0.3-12.1c0-0.3 0.1-0.6 0.3-0.9 0.2-0.2 0.5-0.4 0.9-0.4 0.3 0 0.6 0.1 0.9 0.4s0.4 0.5 0.4 0.9-0.1 0.6-0.4 0.9c-0.2 0.2-0.5 0.4-0.9 0.4-0.3 0-0.6-0.1-0.9-0.4-0.2-0.3-0.3-0.6-0.3-0.9z"/>
	<path d="m275 210.4c0-1.6 0.5-2.9 1.6-3.9s2.4-1.5 3.9-1.5 2.8 0.5 3.9 1.5 1.6 2.3 1.6 4-0.5 3-1.6 4c-1.1 1-2.4 1.5-3.9 1.5s-2.8-0.5-3.9-1.5c-1.1-1.1-1.6-2.5-1.6-4.1zm2.1 0c0 1 0.3 1.9 1 2.5 0.6 0.7 1.4 1 2.3 1s1.7-0.3 2.4-1c0.6-0.7 1-1.5 1-2.5s-0.3-1.9-1-2.5c-0.6-0.7-1.4-1-2.3-1-1 0-1.8 0.3-2.4 1s-1 1.5-1 2.5z"/>
	<path d="m290.9 205.2v1.3c1.3-0.9 2.5-1.4 3.6-1.4 0.7 0 1.2 0.2 1.7 0.5 0.4 0.3 0.7 0.7 0.9 1.2 0.1 0.5 0.2 1.1 0.2 2v5.1h1.8v1.8h-3.8v-6.8c0-0.8-0.1-1.3-0.4-1.5-0.2-0.2-0.5-0.4-0.9-0.4-0.9 0-1.9 0.4-3.1 1.3v5.6h1.8v1.8h-5.7v-1.8h1.8v-6.8h-1.8v-1.8h3.9z"/>
	<path d="m304.5 209.5h6.4v2h-6.4v-2z"/>
	<path d="m318.8 213.8v-11.2h-2.1v-1.9h6.1c1.3 0 2.3 0.1 3 0.3s1.4 0.6 1.8 1.2c0.5 0.6 0.7 1.4 0.7 2.4 0 2-1 3.2-3.1 3.7l2.6 5.4h1.8v1.9h-3.2l-3.4-7h-2.1v5.1h1.9v1.9h-6.2v-1.9h2.2zm2.3-7h1.8c0.9 0 1.5-0.1 1.9-0.2s0.7-0.3 1-0.7c0.3-0.3 0.4-0.8 0.4-1.4 0-0.5-0.1-0.9-0.4-1.2s-0.6-0.5-1-0.6-1-0.1-1.8-0.1h-1.9v4.2z"/>
	<path d="m341.2 210.9h-8.7c0.1 1 0.5 1.7 1.1 2.3s1.4 0.9 2.4 0.9c1.4 0 2.6-0.6 3.4-1.7l1.8 0.8c-0.6 0.9-1.3 1.6-2.3 2-0.9 0.4-1.9 0.7-2.9 0.7-1.6 0-2.9-0.5-4.1-1.5-1.1-1-1.7-2.3-1.7-4 0-1.6 0.5-2.9 1.6-3.9s2.4-1.5 3.8-1.5 2.7 0.5 3.8 1.5c1.2 1 1.8 2.5 1.8 4.4zm-2.1-1.4c-0.1-0.7-0.5-1.4-1.1-2s-1.4-0.9-2.3-0.9c-0.8 0-1.5 0.3-2.1 0.8s-0.9 1.2-1.1 2.1h6.6zm-4.9-5.6l1.5-3.4h3l-3.1 3.4h-1.4z"/>
	<path d="m346.2 205.2v1.3c1.3-0.9 2.5-1.4 3.6-1.4 0.7 0 1.2 0.2 1.7 0.5 0.4 0.3 0.7 0.7 0.9 1.2 0.1 0.5 0.2 1.1 0.2 2v5.1h1.8v1.8h-3.8v-6.8c0-0.8-0.1-1.3-0.4-1.5-0.2-0.2-0.5-0.4-0.9-0.4-0.9 0-1.9 0.4-3.1 1.3v5.6h1.8v1.8h-5.7v-1.8h1.8v-6.8h-1.8v-1.8h3.9z"/>
	<path d="m354.8 210.4c0-1.6 0.5-2.9 1.6-3.9s2.4-1.5 3.9-1.5 2.8 0.5 3.9 1.5 1.6 2.3 1.6 4-0.5 3-1.6 4c-1.1 1-2.4 1.5-3.9 1.5s-2.8-0.5-3.9-1.5c-1-1.1-1.6-2.5-1.6-4.1zm2.2 0c0 1 0.3 1.9 1 2.5 0.6 0.7 1.4 1 2.3 1s1.7-0.3 2.4-1c0.6-0.7 1-1.5 1-2.5s-0.3-1.9-1-2.5c-0.6-0.7-1.4-1-2.3-1-1 0-1.8 0.3-2.4 1s-1 1.5-1 2.5z"/>
	<path d="m370.6 215.8l-3.4-8.8h-1.8v-1.8h5.2v1.8h-1.4l2.2 5.9 2.2-5.9h-1.4v-1.8h5.1v1.8h-1.6l-3.3 8.8h-1.8z"/>
	<path d="m388.1 213.8v1.8h-3.6v-1.3c-1 1-2.1 1.4-3.3 1.4-0.9 0-1.8-0.3-2.5-0.9s-1-1.4-1-2.4 0.4-1.8 1.1-2.4 1.6-1 2.7-1c1 0 1.9 0.3 2.8 0.9v-1c0-0.5 0-0.9-0.2-1.2s-0.3-0.5-0.7-0.8c-0.4-0.2-0.9-0.3-1.4-0.3-1 0-1.8 0.4-2.2 1.2l-2-0.5c0.9-1.6 2.4-2.4 4.5-2.4 0.8 0 1.5 0.1 2 0.3 0.6 0.2 1 0.5 1.3 0.8s0.5 0.7 0.6 1.1 0.1 1 0.1 1.8v4.8h1.8zm-3.8-2c-0.9-0.7-1.8-1-2.7-1-0.6 0-1 0.2-1.4 0.5s-0.6 0.8-0.6 1.3c0 0.5 0.2 0.9 0.5 1.2s0.8 0.5 1.4 0.5c1 0 1.9-0.4 2.8-1.2v-1.3z"/>
	<path d="m388.7 207.1v-1.8h1.4v-1.6l2-1.9v3.5h1.9v1.8h-1.9v5c0 0.8 0 1.3 0.1 1.5s0.3 0.3 0.7 0.3 0.8-0.1 1.1-0.2v1.9c-0.5 0.2-1 0.3-1.6 0.3s-1.1-0.1-1.5-0.4-0.6-0.6-0.7-1-0.2-1.1-0.2-2.1v-5.2h-1.3z"/>
	<path d="m396.6 213.8v-6.8h-1.6v-1.8h3.7v8.6h1.6v1.8h-5.3v-1.8h1.6zm-0.2-12.1c0-0.3 0.1-0.6 0.3-0.9 0.2-0.2 0.5-0.4 0.9-0.4 0.3 0 0.6 0.1 0.9 0.4s0.4 0.5 0.4 0.9-0.1 0.6-0.4 0.9c-0.2 0.2-0.5 0.4-0.9 0.4-0.3 0-0.6-0.1-0.9-0.4-0.2-0.3-0.3-0.6-0.3-0.9z"/>
	<path d="m401.2 210.4c0-1.6 0.5-2.9 1.6-3.9s2.4-1.5 3.9-1.5 2.8 0.5 3.9 1.5 1.6 2.3 1.6 4-0.5 3-1.6 4c-1.1 1-2.4 1.5-3.9 1.5s-2.8-0.5-3.9-1.5c-1-1.1-1.6-2.5-1.6-4.1zm2.2 0c0 1 0.3 1.9 1 2.5 0.6 0.7 1.4 1 2.3 1s1.7-0.3 2.4-1c0.6-0.7 1-1.5 1-2.5s-0.3-1.9-1-2.5c-0.6-0.7-1.4-1-2.3-1-1 0-1.8 0.3-2.4 1s-1 1.5-1 2.5z"/>
	<path d="m417.1 205.2v1.3c1.3-0.9 2.5-1.4 3.6-1.4 0.7 0 1.2 0.2 1.7 0.5 0.4 0.3 0.7 0.7 0.9 1.2 0.1 0.5 0.2 1.1 0.2 2v5.1h1.8v1.8h-3.8v-6.8c0-0.8-0.1-1.3-0.4-1.5-0.2-0.2-0.5-0.4-0.9-0.4-0.9 0-1.9 0.4-3.1 1.3v5.6h1.8v1.8h-5.7v-1.8h1.8v-6.8h-1.8v-1.8h3.9z"/>
</g>
<g opacity=".5" fill="#fff">
	<path d="m92.5 152.5v-3.9h1.4v1c0.7 1.2 1.5 1.8 2.6 1.8 0.5 0 1-0.2 1.4-0.5s0.6-0.8 0.6-1.3-0.2-0.9-0.5-1.1-0.9-0.5-1.7-0.7c-1-0.3-1.7-0.5-2.2-0.7s-0.8-0.6-1.1-1c-0.3-0.4-0.4-0.9-0.4-1.5 0-0.9 0.3-1.6 0.9-2.2 0.6-0.5 1.4-0.8 2.3-0.8s1.7 0.3 2.4 0.8v-0.7h1.3v3.3h-1.3v-0.8c-0.6-0.8-1.3-1.3-2.3-1.3-0.6 0-1 0.1-1.4 0.4-0.3 0.3-0.5 0.6-0.5 1 0 0.3 0.1 0.5 0.2 0.8 0.2 0.2 0.4 0.4 0.6 0.5s0.7 0.2 1.5 0.4c1 0.2 1.7 0.5 2.1 0.7s0.8 0.6 1.1 1.1 0.5 1.1 0.5 1.7c0 0.9-0.3 1.7-1 2.3s-1.5 0.9-2.4 0.9c-1 0-1.9-0.4-2.7-1.1v0.9h-1.4z"/>
	<path d="m102.1 151.2v-8.2h-1.4v-1.4h3.9c1.1 0 2 0.1 2.6 0.2 0.6 0.2 1 0.5 1.4 1.1s0.6 1.2 0.6 2c0 0.6-0.1 1.2-0.4 1.7s-0.6 0.9-0.9 1.1c-0.4 0.2-0.8 0.4-1.3 0.5s-1.2 0.1-2.1 0.1h-0.8v2.8h1.4v1.4h-4.4v-1.4h1.4zm1.7-4.1h0.9c1.1 0 1.8-0.2 2.2-0.5s0.6-0.8 0.6-1.6c0-0.5-0.1-0.9-0.3-1.2s-0.5-0.5-0.8-0.6c-0.3-0.1-0.9-0.1-1.6-0.1h-1v4z"/>
	<path d="m111.3 151.2v-8.2h-1.5v-1.4h4.4c0.9 0 1.7 0.1 2.2 0.2s1 0.4 1.3 0.9c0.4 0.5 0.5 1 0.5 1.7 0 1.4-0.7 2.3-2.2 2.7l1.9 4h1.3v1.4h-2.2l-2.5-5.1h-1.5v3.7h1.4v1.4h-4.5v-1.4h1.4zm1.7-5.1h1.3c0.6 0 1.1 0 1.4-0.1s0.5-0.2 0.7-0.5 0.3-0.6 0.3-1c0-0.4-0.1-0.7-0.3-0.9s-0.4-0.4-0.7-0.5-0.7-0.1-1.3-0.1h-1.4v3.1z"/>
	<path d="m120.9 151.2v-8.2h-1.4v-1.4h4.4v1.4h-1.3v8.1h3.3v-3.7h1.5v5.1h-8v-1.4h1.5z"/>
</g>
</svg>
