<?xml version="1.0" encoding="utf-8"?>
<!-- Generator: Adobe Illustrator 18.1.1, SVG Export Plug-In . SVG Version: 6.00 Build 0)  -->
<svg version="1.0" id="Layer_1" xmlns="http://www.w3.org/2000/svg" xmlns:xlink="http://www.w3.org/1999/xlink" x="0px" y="0px"
	 viewBox="0 81.3 200 36.7" enable-background="new 0 81.3 200 36.7" xml:space="preserve">
<g>
	<path fill="#3C3C3B" d="M56,102.6l2.2,1.2c-0.5,1.8-1.4,3.2-2.9,4.3c-1.5,1-3.1,1.5-5,1.5c-2.5,0-4.5-0.8-6-2.4
		c-1.5-1.6-2.2-3.6-2.2-6c0-2.6,0.8-4.7,2.3-6.2s3.5-2.3,5.9-2.3c2.2,0,3.9,0.6,5.4,1.7v-1.5h2.1v5.3h-2.1c-0.5-1.1-1.2-1.9-2.2-2.5
		c-1-0.6-2-0.9-3.1-0.9c-1.7,0-3,0.6-4,1.8c-1,1.2-1.6,2.7-1.6,4.5c0,1.8,0.6,3.4,1.7,4.5c1.1,1.2,2.5,1.7,4,1.7
		c1.3,0,2.4-0.4,3.5-1.2C54.8,105.3,55.5,104.1,56,102.6z"/>
	<path fill="#3C3C3B" d="M60.2,103.6c0-1.7,0.6-3.2,1.7-4.3c1.2-1.1,2.6-1.7,4.3-1.7c1.7,0,3,0.5,4.3,1.7c1.2,1.1,1.8,2.6,1.8,4.3
		s-0.6,3.3-1.7,4.4c-1.2,1.1-2.6,1.7-4.3,1.7c-1.7,0-3.1-0.6-4.3-1.7C60.8,106.8,60.2,105.3,60.2,103.6z M62.6,103.6
		c0,1.1,0.4,2.1,1.1,2.8c0.7,0.7,1.6,1.1,2.6,1.1c1,0,1.9-0.4,2.6-1.1c0.7-0.7,1-1.7,1-2.8c0-1.1-0.4-2.1-1.1-2.8s-1.6-1.1-2.6-1.1
		c-1.1,0-1.9,0.4-2.6,1.1C63,101.6,62.6,102.5,62.6,103.6z"/>
	<path fill="#3C3C3B" d="M78,97.8v1.4c1.4-1,2.8-1.6,3.9-1.6c0.8,0,1.3,0.2,1.8,0.5c0.5,0.4,0.8,0.8,0.9,1.3
		c0.1,0.5,0.2,1.3,0.2,2.2v5.6h1.9v2h-4.2v-7.5c0-0.9-0.1-1.4-0.4-1.7c-0.3-0.3-0.6-0.4-0.9-0.4c-1,0-2.1,0.5-3.4,1.4v6.1h2v2h-6.2
		v-2h2v-7.4h-2v-2H78z"/>
	<path fill="#3C3C3B" d="M88,109.3v-3.9h2v0.4c0.1,0.5,0.4,1,0.9,1.3c0.5,0.4,1.1,0.5,1.8,0.5c0.7,0,1.3-0.1,1.7-0.4
		c0.4-0.3,0.7-0.6,0.7-1s-0.2-0.8-0.5-0.9c-0.4-0.2-1.1-0.4-2.2-0.6c-1.6-0.3-2.7-0.7-3.4-1.3s-1-1.3-1-2.3c0-0.9,0.4-1.7,1.1-2.4
		c0.7-0.6,1.7-1,2.9-1c1.1,0,2,0.2,2.8,0.7v-0.5h2v3.8h-2V101c-0.6-0.9-1.5-1.4-2.6-1.4c-0.6,0-1.1,0.1-1.5,0.4s-0.6,0.6-0.6,1
		s0.2,0.7,0.5,0.9c0.4,0.2,1.1,0.3,2.2,0.5c1.1,0.2,2,0.4,2.5,0.6c0.5,0.3,1,0.6,1.4,1.2c0.4,0.5,0.6,1.2,0.6,1.9
		c0,1.1-0.4,1.9-1.2,2.6c-0.8,0.6-1.9,0.9-3.2,0.9c-1.2,0-2.2-0.3-3-0.9v0.6L88,109.3L88,109.3z"/>
	<path fill="#3C3C3B" d="M98.8,99.8v-2h1.5v-1.7l2.2-2.1v3.8h2.1v2h-2.1v5.6c0,0.9,0,1.4,0.1,1.7c0.1,0.2,0.4,0.3,0.7,0.3
		c0.4,0,0.8-0.1,1.2-0.2v2.1c-0.6,0.2-1.2,0.3-1.7,0.3c-0.7,0-1.3-0.1-1.7-0.4c-0.4-0.3-0.7-0.7-0.8-1.1c-0.1-0.4-0.2-1.3-0.2-2.4
		v-5.7H98.8z"/>
	<path fill="#3C3C3B" d="M108.3,107.3v-7.4H106v-2h4.1v2.6c0.3-0.7,0.6-1.2,1-1.7c0.4-0.4,0.9-0.7,1.4-0.9c0.5-0.1,1.2-0.2,2.1-0.2
		h0.6v2.3h-0.4c-1.1,0-2,0.1-2.6,0.4c-0.6,0.2-1,0.6-1.3,1.3c-0.3,0.6-0.4,1.7-0.4,3.2v2.6h2.5v2h-7v-2H108.3z"/>
	<path fill="#3C3C3B" d="M129.3,107.3v2h-4.2V108c-1.3,1-2.6,1.5-3.8,1.5c-0.8,0-1.4-0.2-1.9-0.5c-0.5-0.3-0.9-0.8-1-1.3
		c-0.2-0.5-0.3-1.4-0.3-2.6v-5.3h-1.6v-2h3.9v7c0,0.9,0,1.4,0.1,1.7c0,0.3,0.2,0.5,0.4,0.7c0.2,0.2,0.5,0.3,0.9,0.3
		c1,0,2.2-0.5,3.3-1.5v-6.2h-2v-2h4.3v9.5H129.3z"/>
	<path fill="#3C3C3B" d="M141.2,97.8v4.3h-2c-0.1-0.8-0.4-1.5-1-1.9c-0.6-0.4-1.3-0.7-2-0.7c-1,0-1.8,0.4-2.5,1.1
		c-0.6,0.7-0.9,1.7-0.9,2.8c0,1.1,0.3,2,0.9,2.9c0.6,0.8,1.5,1.3,2.6,1.3c1.6,0,2.7-0.8,3.4-2.2l1.8,0.9c-1,2.3-2.8,3.4-5.4,3.4
		c-1.8,0-3.2-0.6-4.3-1.8c-1-1.3-1.6-2.6-1.6-4.3c0-1.7,0.6-3.1,1.7-4.3s2.4-1.7,3.9-1.7c1.3,0,2.3,0.4,3.2,1.1V98h2V97.8z"/>
	<path fill="#3C3C3B" d="M142.9,99.8v-2h1.5v-1.7l2.2-2.1v3.8h2.1v2h-2.1v5.6c0,0.9,0,1.4,0.1,1.7c0.1,0.2,0.4,0.3,0.7,0.3
		c0.4,0,0.8-0.1,1.2-0.2v2.1c-0.6,0.2-1.2,0.3-1.7,0.3c-0.7,0-1.3-0.1-1.7-0.4c-0.4-0.3-0.7-0.7-0.8-1.1c-0.1-0.4-0.2-1.3-0.2-2.4
		v-5.7H142.9z"/>
	<path fill="#3C3C3B" d="M160.2,107.2V94.9h-3.4v4.2h-2v-6.3h13.3v6.2h-2v-4.2h-3.4v12.3h2.2v2.1h-6.7v-2.1L160.2,107.2L160.2,107.2
		z"/>
	<path fill="#3C3C3B" d="M170.9,107.3v-7.4h-1.8v-2h4v9.5h1.8v2h-5.8v-2H170.9z M170.6,94c0-0.4,0.1-0.7,0.4-0.9
		c0.3-0.3,0.6-0.4,1-0.4c0.4,0,0.7,0.1,0.9,0.4s0.4,0.6,0.4,0.9c0,0.4-0.1,0.7-0.4,0.9c-0.3,0.3-0.6,0.4-0.9,0.4
		c-0.4,0-0.7-0.1-1-0.4C170.8,94.6,170.6,94.3,170.6,94z"/>
	<path fill="#3C3C3B" d="M178.2,107.3v-7.4h-1.9v-2h4.2v1.4c1.3-1.1,2.7-1.6,4-1.6s2.2,0.6,2.7,1.8c1.5-1.2,2.9-1.8,4.2-1.8
		c0.8,0,1.3,0.2,1.8,0.5c0.5,0.3,0.8,0.8,0.9,1.3c0.2,0.5,0.3,1.3,0.3,2.2v5.7h2v2h-4.3V102c0-0.7,0-1.1-0.1-1.4s-0.2-0.5-0.4-0.7
		s-0.5-0.3-0.9-0.3c-0.9,0-2.1,0.5-3.3,1.5v6.1h2v2h-4.2v-7.5c0-0.8-0.1-1.3-0.3-1.6c-0.2-0.3-0.6-0.5-1.1-0.5
		c-0.9,0-1.9,0.5-3.3,1.5v6.1h2v2h-6.3v-2H178.2z"/>
</g>
<g>
	<rect x="40.9" y="112.2" fill="#005D74" width="155.6" height="1"/>
</g>
<g>
	<g>
		<path fill="#005D74" d="M39.8,111C39.8,111,39.7,111,39.8,111L13.4,84.7c0,0,0-0.1,0-0.1c0,0,0.1,0,0.1,0l26.3,26.3
			C39.9,110.9,39.9,111,39.8,111C39.8,111,39.8,111,39.8,111z"/>
	</g>
	<g>
		<path fill="#005D74" d="M3.2,104.5C3.2,104.5,3.1,104.5,3.2,104.5c-0.1-0.1-0.1-0.1,0-0.2l21.2-21.1c0,0,0.1,0,0.1,0
			c0,0,0,0.1,0,0.1L3.2,104.5C3.2,104.5,3.2,104.5,3.2,104.5z"/>
	</g>
	<g>
		<path fill="#005D74" d="M22.9,112.2H3.2c0,0,0,0,0-0.1c0,0,0-0.1,0.1-0.1h19.7C23,112,23,112,22.9,112.2
			C23,112.1,23,112.2,22.9,112.2z"/>
	</g>
	<g>
		<path fill="#005D74" d="M9.1,116.6C9,116.6,9,116.6,9.1,116.6L9,92c0,0,0-0.1,0.1-0.1c0,0,0.1,0,0.1,0.1L9.1,116.6
			C9.1,116.6,9.1,116.6,9.1,116.6z"/>
	</g>
	<g>
		<path fill="#005D74" d="M27.7,116.6C27.7,116.6,27.6,116.6,27.7,116.6L27.6,92c0,0,0-0.1,0.1-0.1c0,0,0.1,0,0.1,0.1L27.7,116.6
			C27.8,116.6,27.8,116.6,27.7,116.6z"/>
	</g>
	<g opacity="0.23">
		<path fill="#005D74" d="M11.2,100.8C11.2,100.8,11.2,100.8,11.2,100.8L11.2,100.8c-0.1-0.1-0.1-0.2-0.1-0.2c0,0,0.1,0,0.1,0l0,0
			C11.3,100.7,11.3,100.7,11.2,100.8C11.3,100.7,11.2,100.8,11.2,100.8z M11,100.6C11,100.6,10.9,100.6,11,100.6l-0.2-0.2
			c0,0,0-0.1,0-0.1c0,0,0.1,0,0.1,0l0.2,0.2C11.1,100.5,11.1,100.5,11,100.6C11,100.6,11,100.6,11,100.6z M10.7,100.2
			C10.7,100.2,10.6,100.2,10.7,100.2l-0.2-0.2c0,0,0-0.1,0-0.1c0,0,0.1,0,0.1,0l0.2,0.2C10.8,100.1,10.8,100.1,10.7,100.2
			C10.7,100.2,10.7,100.2,10.7,100.2z M10.4,99.9C10.4,99.9,10.3,99.9,10.4,99.9l-0.2-0.2c0,0,0-0.1,0-0.1c0,0,0.1,0,0.1,0l0.2,0.2
			C10.5,99.8,10.5,99.8,10.4,99.9C10.4,99.9,10.4,99.9,10.4,99.9z M10,99.6C10,99.6,10,99.6,10,99.6l-0.2-0.2c0,0,0-0.1,0-0.1
			c0,0,0.1,0,0.1,0l0.2,0.2C10.1,99.4,10.1,99.5,10,99.6C10,99.6,10,99.6,10,99.6z M9.7,99.2C9.7,99.2,9.6,99.2,9.7,99.2L9.5,99
			c0,0,0-0.1,0-0.1c0,0,0.1,0,0.1,0L9.8,99C9.8,99.1,9.8,99.1,9.7,99.2C9.7,99.2,9.7,99.2,9.7,99.2z M9.4,98.9
			C9.4,98.9,9.3,98.9,9.4,98.9l-0.2-0.2c0,0,0-0.1,0-0.1c0,0,0.1,0,0.1,0l0.1,0.2C9.5,98.8,9.5,98.9,9.4,98.9L9.4,98.9z M9,98.6
			C9,98.6,9,98.6,9,98.6l-0.2-0.2c0,0,0-0.1,0-0.1c0,0,0.1,0,0.1,0l0.2,0.2C9.1,98.5,9.1,98.5,9,98.6C9.1,98.6,9.1,98.6,9,98.6z
			 M8.7,98.3C8.7,98.3,8.7,98.3,8.7,98.3L8.5,98c0,0,0-0.1,0-0.1c0,0,0.1,0,0.1,0l0.2,0.2C8.8,98.1,8.8,98.2,8.7,98.3
			C8.7,98.2,8.7,98.3,8.7,98.3z M8.4,97.9C8.4,97.9,8.3,97.9,8.4,97.9l-0.2-0.2c0,0,0-0.1,0-0.1c0,0,0.1,0,0.1,0l0.2,0.2
			C8.5,97.8,8.5,97.8,8.4,97.9C8.4,97.9,8.4,97.9,8.4,97.9z M8,97.6C8,97.6,8,97.6,8,97.6l-0.2-0.2c0,0,0-0.1,0-0.1c0,0,0.1,0,0.1,0
			l0.2,0.2C8.2,97.5,8.2,97.6,8,97.6C8.1,97.6,8.1,97.6,8,97.6z M7.7,97.3C7.7,97.3,7.7,97.3,7.7,97.3l-0.2-0.2c0,0,0-0.1,0-0.1
			c0,0,0.1,0,0.1,0l0.2,0.2C7.8,97.2,7.8,97.2,7.7,97.3C7.8,97.2,7.8,97.3,7.7,97.3z M7.4,96.9C7.4,96.9,7.4,96.9,7.4,96.9l-0.2-0.2
			c0,0,0-0.1,0-0.1c0,0,0.1,0,0.1,0l0.2,0.2C7.5,96.8,7.5,96.9,7.4,96.9C7.4,96.9,7.4,96.9,7.4,96.9z M7,96.6C7,96.6,7,96.6,7,96.6
			l-0.2-0.2c0,0,0-0.1,0-0.1c0,0,0.1,0,0.1,0l0.2,0.2C7.2,96.5,7.2,96.5,7,96.6C7.1,96.6,7.1,96.6,7,96.6z"/>
	</g>
	<g opacity="0.23">
		<path fill="#005D74" d="M25.6,101.2C25.6,101.2,25.5,101.2,25.6,101.2c-0.1-0.1-0.1-0.1,0-0.2l0,0c0,0,0.1,0,0.1,0
			c0,0,0,0.1,0,0.1L25.6,101.2C25.6,101.2,25.6,101.2,25.6,101.2z M25.8,101C25.8,101,25.7,101,25.8,101c-0.1-0.1-0.1-0.1,0-0.2
			l0.2-0.2c0,0,0.1,0,0.1,0c0,0,0,0.1,0,0.1L25.8,101C25.8,101,25.8,101,25.8,101z M26.1,100.7C26.1,100.7,26.1,100.7,26.1,100.7
			c-0.1-0.1-0.1-0.1,0-0.2l0.2-0.2c0,0,0.1,0,0.1,0c0,0,0,0.1,0,0.1L26.1,100.7C26.1,100.7,26.1,100.7,26.1,100.7z M26.5,100.3
			C26.5,100.3,26.4,100.3,26.5,100.3c-0.1-0.1-0.1-0.1,0-0.2l0.2-0.2c0,0,0.1,0,0.1,0c0,0,0,0.1,0,0.1L26.5,100.3
			C26.5,100.3,26.5,100.3,26.5,100.3z M26.8,100C26.8,100,26.7,100,26.8,100c-0.1-0.1-0.1-0.1,0-0.2l0.2-0.2c0,0,0.1,0,0.1,0
			c0,0,0,0.1,0,0.1L26.8,100C26.8,100,26.8,100,26.8,100z M27.1,99.7C27.1,99.7,27,99.7,27.1,99.7c-0.1-0.1-0.1-0.1,0-0.2l0.2-0.2
			c0,0,0.1,0,0.1,0c0,0,0,0.1,0,0.1L27.1,99.7C27.1,99.7,27.1,99.7,27.1,99.7z M27.4,99.3C27.4,99.3,27.4,99.3,27.4,99.3
			c-0.1-0.1-0.1-0.1,0-0.2l0.2-0.2c0,0,0.1,0,0.1,0c0,0,0,0.1,0,0.1L27.4,99.3C27.5,99.3,27.4,99.3,27.4,99.3z M27.8,99
			C27.8,99,27.7,99,27.8,99c-0.1-0.1-0.1-0.1,0-0.2l0.2-0.2c0,0,0.1,0,0.1,0c0,0,0,0.1,0,0.1L27.8,99C27.8,99,27.8,99,27.8,99z
			 M28.1,98.7C28.1,98.7,28,98.7,28.1,98.7c-0.1-0.1-0.1-0.1,0-0.2l0.2-0.2c0,0,0.1,0,0.1,0c0,0,0,0.1,0,0.1L28.1,98.7
			C28.1,98.7,28.1,98.7,28.1,98.7z M28.4,98.4C28.4,98.4,28.3,98.4,28.4,98.4c-0.1-0.1-0.1-0.1,0-0.2l0.2-0.2c0,0,0.1,0,0.1,0
			c0,0,0,0.1,0,0.1L28.4,98.4C28.4,98.4,28.4,98.4,28.4,98.4z M28.7,98C28.7,98,28.7,98,28.7,98c-0.1-0.1-0.1-0.1,0-0.2l0.2-0.2
			c0,0,0.1,0,0.1,0c0,0,0,0.1,0,0.1L28.7,98C28.8,98,28.7,98,28.7,98z M29.1,97.7C29.1,97.7,29,97.7,29.1,97.7
			c-0.1-0.1-0.1-0.1,0-0.2l0.1-0.1c0,0,0.1,0,0.1,0c0,0,0,0.1,0,0.1L29.1,97.7C29.1,97.7,29.1,97.7,29.1,97.7z M29.4,97.4
			C29.4,97.4,29.3,97.4,29.4,97.4c-0.1-0.1-0.1-0.1,0-0.2l0.2-0.2c0,0,0.1,0,0.1,0c0,0,0,0.1,0,0.1L29.4,97.4
			C29.4,97.4,29.4,97.4,29.4,97.4z M29.7,97.1C29.7,97.1,29.7,97.1,29.7,97.1c-0.1-0.1-0.1-0.1,0-0.2l0.2-0.2c0,0,0.1,0,0.1,0
			c0,0,0,0.1,0,0.1L29.7,97.1C29.8,97.1,29.7,97.1,29.7,97.1z"/>
	</g>
	<g opacity="0.23">
		<path fill="#005D74" d="M11.3,114.5C11.3,114.5,11.3,114.5,11.3,114.5L11.3,114.5c-0.1-0.1-0.1-0.2-0.1-0.2c0,0,0.1,0,0.1,0l0,0
			C11.4,114.3,11.4,114.4,11.3,114.5C11.3,114.4,11.3,114.5,11.3,114.5z M11.1,114.2C11.1,114.2,11,114.2,11.1,114.2l-0.2-0.2
			c0,0,0-0.1,0-0.1c0,0,0.1,0,0.1,0l0.2,0.2C11.2,114.1,11.2,114.1,11.1,114.2C11.1,114.2,11.1,114.2,11.1,114.2z M10.8,113.9
			C10.8,113.9,10.7,113.9,10.8,113.9l-0.2-0.2c0,0,0-0.1,0-0.1c0,0,0.1,0,0.1,0l0.2,0.2C10.9,113.7,10.9,113.8,10.8,113.9
			C10.8,113.9,10.8,113.9,10.8,113.9z M10.4,113.6C10.4,113.6,10.4,113.6,10.4,113.6l-0.2-0.2c0,0,0-0.1,0-0.1s0.1,0,0.1,0l0.2,0.2
			C10.6,113.4,10.6,113.5,10.4,113.6C10.5,113.6,10.4,113.6,10.4,113.6z M10.1,113.3C10.1,113.3,10,113.3,10.1,113.3l-0.2-0.2
			c0,0,0-0.1,0-0.1c0,0,0.1,0,0.1,0l0.2,0.2C10.2,113.2,10.2,113.2,10.1,113.3C10.1,113.3,10.1,113.3,10.1,113.3z M9.8,112.9
			C9.8,112.9,9.7,112.9,9.8,112.9l-0.2-0.2c0,0,0-0.1,0-0.1c0,0,0.1,0,0.1,0l0.2,0.2C9.9,112.8,9.9,112.8,9.8,112.9
			C9.8,112.9,9.8,112.9,9.8,112.9z M9.5,112.6C9.5,112.6,9.4,112.6,9.5,112.6l-0.2-0.2c0,0,0-0.1,0-0.1s0.1,0,0.1,0l0.2,0.2
			C9.6,112.4,9.6,112.5,9.5,112.6C9.5,112.6,9.5,112.6,9.5,112.6z M9.1,112.3C9.1,112.3,9.1,112.3,9.1,112.3L8.9,112
			c0,0,0-0.1,0-0.1c0,0,0.1,0,0.1,0l0.2,0.2C9.3,112.1,9.3,112.2,9.1,112.3C9.2,112.3,9.1,112.3,9.1,112.3z M8.8,111.9
			C8.8,111.9,8.7,111.9,8.8,111.9l-0.2-0.2c0,0,0-0.1,0-0.1c0,0,0.1,0,0.1,0l0.2,0.2C8.9,111.8,8.9,111.8,8.8,111.9
			C8.8,111.9,8.8,111.9,8.8,111.9z M8.5,111.6C8.5,111.6,8.4,111.6,8.5,111.6l-0.2-0.2c0,0,0-0.1,0-0.1c0,0,0.1,0,0.1,0l0.2,0.2
			C8.6,111.5,8.6,111.5,8.5,111.6C8.5,111.6,8.5,111.6,8.5,111.6z M8.2,111.3C8.2,111.3,8.1,111.3,8.2,111.3l-0.2-0.2
			c0,0,0-0.1,0-0.1c0,0,0.1,0,0.1,0l0.2,0.2C8.3,111.1,8.3,111.2,8.2,111.3C8.2,111.3,8.2,111.3,8.2,111.3z M7.8,111
			C7.8,111,7.8,111,7.8,111l-0.2-0.2c0,0,0-0.1,0-0.1c0,0,0.1,0,0.1,0l0.2,0.2C7.9,110.8,7.9,110.9,7.8,111
			C7.8,110.9,7.8,111,7.8,111z M7.5,110.6C7.5,110.6,7.4,110.6,7.5,110.6l-0.2-0.2c0,0,0-0.1,0-0.1c0,0,0.1,0,0.1,0l0.2,0.2
			C7.6,110.5,7.6,110.6,7.5,110.6C7.5,110.6,7.5,110.6,7.5,110.6z M7.2,110.3C7.2,110.3,7.1,110.3,7.2,110.3L7,110.1
			c0,0,0-0.1,0-0.1c0,0,0.1,0,0.1,0l0.2,0.2C7.3,110.2,7.3,110.2,7.2,110.3C7.2,110.3,7.2,110.3,7.2,110.3z"/>
	</g>
	<g>
		<path fill="#3C3C3B" d="M18.5,112.7h-10V98.3l10.6-10.6v4.9c0,0.3-0.3,0.6-0.6,0.6s-0.6-0.3-0.6-0.6v-2.1l-8.3,8.3v12.7h8.9
			c0.3,0,0.6,0.3,0.6,0.6C19.1,112.4,18.8,112.7,18.5,112.7z"/>
	</g>
	<g>
		<path fill="#3C3C3B" d="M31.1,102.8c-0.1,0-0.3,0-0.4-0.2L20,91.9c-0.2-0.2-0.2-0.6,0-0.8c0.2-0.2,0.6-0.2,0.8,0l10.8,10.8
			c0.2,0.2,0.2,0.6,0,0.8C31.4,102.8,31.3,102.8,31.1,102.8z"/>
	</g>
	<g>
		<path fill="#3C3C3B" d="M27.7,112.7c-0.3,0-0.6-0.3-0.6-0.6v-13c0-0.3,0.3-0.6,0.6-0.6s0.6,0.3,0.6,0.6v13
			C28.3,112.4,28,112.7,27.7,112.7z"/>
	</g>
</g>
<g opacity="0.5">
	<path fill="#4A4A49" d="M63.5,94v-1.7h0.6v0.4c0.3,0.5,0.7,0.8,1.2,0.8c0.2,0,0.4-0.1,0.6-0.2s0.3-0.4,0.3-0.6s-0.1-0.4-0.2-0.5
		c-0.1-0.1-0.4-0.2-0.8-0.3c-0.4-0.1-0.8-0.2-1-0.3c-0.2-0.1-0.4-0.3-0.5-0.4c-0.1-0.2-0.2-0.4-0.2-0.7c0-0.4,0.1-0.7,0.4-1
		c0.3-0.2,0.6-0.4,1-0.4c0.4,0,0.8,0.1,1.1,0.4v-0.3h0.6v1.5h-0.6v-0.4c-0.3-0.4-0.6-0.6-1-0.6c-0.3,0-0.4,0-0.6,0.2
		c-0.1,0.1-0.2,0.3-0.2,0.4c0,0.1,0,0.2,0.1,0.4c0.1,0.1,0.2,0.2,0.3,0.2c0.1,0,0.3,0.1,0.7,0.2c0.4,0.1,0.8,0.2,0.9,0.3
		s0.4,0.3,0.5,0.5c0.1,0.2,0.2,0.5,0.2,0.8c0,0.4-0.1,0.8-0.4,1c-0.3,0.3-0.7,0.4-1.1,0.4c-0.4,0-0.9-0.2-1.2-0.5V94L63.5,94
		L63.5,94z"/>
	<path fill="#4A4A49" d="M67.8,93.4v-3.6h-0.6v-0.6H69c0.5,0,0.9,0,1.2,0.1c0.3,0.1,0.4,0.2,0.6,0.5c0.2,0.3,0.3,0.5,0.3,0.9
		c0,0.3,0,0.5-0.2,0.8s-0.3,0.4-0.4,0.5c-0.2,0.1-0.4,0.2-0.6,0.2c-0.2,0-0.5,0-0.9,0h-0.4v1.3h0.6V94h-2v-0.6H67.8z M68.6,91.5H69
		c0.5,0,0.8-0.1,1-0.2s0.3-0.4,0.3-0.7c0-0.2,0-0.4-0.1-0.5c-0.1-0.1-0.2-0.2-0.4-0.3c-0.1,0-0.4,0-0.7,0h-0.4
		C68.6,89.8,68.6,91.5,68.6,91.5z"/>
	<path fill="#4A4A49" d="M72,93.4v-3.6h-0.7v-0.6h2c0.4,0,0.8,0,1,0.1c0.2,0,0.4,0.2,0.6,0.4c0.2,0.2,0.2,0.4,0.2,0.8
		c0,0.6-0.3,1-1,1.2l0.9,1.8h0.6V94h-1.1l-1.1-2.3h-0.7v1.7h0.6V94h-2v-0.6H72z M72.7,91.1h0.6c0.3,0,0.5,0,0.6,0
		c0.1,0,0.2-0.1,0.3-0.2c0.1-0.1,0.1-0.3,0.1-0.4c0-0.2,0-0.3-0.1-0.4c-0.1-0.1-0.2-0.2-0.3-0.2s-0.3,0-0.6,0h-0.6V91.1z"/>
	<path fill="#4A4A49" d="M76.3,93.4v-3.6h-0.6v-0.6h2v0.6H77v3.6h1.5v-1.7h0.7V94h-3.6v-0.6H76.3z"/>
</g>
</svg>
